<svg xmlns="http://www.w3.org/2000/svg" xmlns:xlink="http://www.w3.org/1999/xlink" version="1.1" x="0px" y="0px" viewBox="0 0 100 125" enable-background="new 0 0 100 100" xml:space="preserve"><path d="M88.085,81.99c0,0,4.351,1.865,4.351,0.104s-4.872-2.903-4.872-2.903s7.358,1.555,8.603-0.518  c1.245-2.072-0.827-6.632-11.398-8.394s-13.757-7.885-28.909-20.727C41.5,37.395,36.474,36.75,31.064,30.435  c-3.227-3.764-4.009-9.581-4.52-13.713c0.01-0.183,0.054-0.35,0.054-0.533c0-5.23-4.239-9.47-9.469-9.47  c-3.771,0-6.996,2.219-8.519,5.409c-1.459,1.941-2.601,3.193-5.544,4.763c-3.89,2.074-3.75,5.041-1.408,4.218  c2.227-0.78,8.984-1.547,10.667,1.786c0.068,0.334,0.137,0.704,0.219,1.169C13.06,27.068-5.282,49.23,15.86,67.675  c5.53,4.826,12.166,8.037,18.951,10.167c0.632,2.617,1.144,6.647-0.632,9.52c-1.374,2.221-3.311,2.869-5.329,3.036H18.771  c-0.795,0-1.442,0.646-1.442,1.444c0,0.795,0.646,1.439,1.442,1.439h20.951c0.798,0,1.444-0.645,1.444-1.439  c0-0.798-0.646-1.444-1.444-1.444h-1.378c-1.149-0.883-1.623-3.285-0.062-6.373c0.937-1.855,4.224-2.961,7.429-3.613  c15.249,2.518,28.591,0.748,28.591,0.748C98.031,96.288,100,91.73,100,91.73L88.085,81.99z"/><text x="0" y="115" fill="#000000" font-size="5px" font-weight="bold" font-family="'Helvetica Neue', Helvetica, Arial-Unicode, Arial, Sans-serif">Created by Juan Pablo Bravo</text><text x="0" y="120" fill="#000000" font-size="5px" font-weight="bold" font-family="'Helvetica Neue', Helvetica, Arial-Unicode, Arial, Sans-serif">from the Noun Project</text></svg>